<svg xmlns="http://www.w3.org/2000/svg" width="65" height="66" viewBox="0 0 65 66" fill="none">
    <path
        d="M32.9678 26.8789V39.6017H50.7108C49.9317 43.6933 47.5936 47.1578 44.087 49.4873L54.7868 57.7601C61.0208 52.0261 64.6174 43.6039 64.6174 33.599C64.6174 31.2695 64.4077 29.0294 64.0179 26.8793L32.9678 26.8789Z"
        fill="#4285F4" />
    <path
        d="M14.4913 39.1052L12.0781 40.946L3.53613 47.576C8.96094 58.2977 20.0795 65.7045 32.9671 65.7045C41.8684 65.7045 49.3312 62.7776 54.7861 57.7603L44.0864 49.4875C41.1492 51.4586 37.4027 52.6534 32.9671 52.6534C24.3953 52.6534 17.1125 46.8893 14.5048 39.1242L14.4913 39.1052Z"
        fill="#34A853" />
    <path
        d="M3.53637 18.1284C1.28864 22.5483 0 27.536 0 32.852C0 38.168 1.28864 43.1556 3.53637 47.5755C3.53637 47.6052 14.5061 39.0937 14.5061 39.0937C13.8467 37.1226 13.457 35.0321 13.457 32.8516C13.457 30.6712 13.8467 28.5807 14.5061 26.6096L3.53637 18.1284Z"
        fill="#FBBC05" />
    <path
        d="M32.9678 13.0811C37.8232 13.0811 42.139 14.7536 45.5858 17.9791L55.0267 8.57155C49.3021 3.25556 41.8694 0 32.9678 0C20.0802 0 8.96094 7.3768 3.53613 18.1285L14.5055 26.6103C17.1129 18.8452 24.396 13.0811 32.9678 13.0811Z"
        fill="#EA4335" />
</svg>